<?xml version="1.0" encoding="utf-8"?>
<!-- Generator: Adobe Illustrator 26.0.0, SVG Export Plug-In . SVG Version: 6.00 Build 0)  -->
<svg version="1.1" id="Capa_1" xmlns="http://www.w3.org/2000/svg" xmlns:xlink="http://www.w3.org/1999/xlink" x="0px" y="0px"
	 viewBox="0 0 36 36" enable-background="new 0 0 36 36" xml:space="preserve">
<path fill="none" stroke="#FFFFFF" stroke-miterlimit="10" d="M33,18.858c0,7.353-5.122,12.154-11.347,12.154
	s-11.347-4.801-11.347-12.154S16.108,5.544,22.333,5.544C27.98,6.122,32.566,11.071,33,18.858z"/>
<line fill="#4D4DCE" stroke="#FFFFFF" stroke-miterlimit="10" x1="3.618" y1="16.53" x2="10.156" y2="16.53"/>
<circle fill="#FFFFFF" stroke="#FFFFFF" stroke-miterlimit="10" cx="2.94" cy="16.53" r="0.877"/>
<line fill="#4D4DCE" stroke="#FFFFFF" stroke-miterlimit="10" x1="9.849" y1="19.589" x2="7.217" y2="19.589"/>
<circle fill="#4D4DCE" stroke="#FFFFFF" stroke-miterlimit="10" cx="6.955" cy="19.589" r="0.579"/>
<g>
	<g>
		<line fill="#FFFFFF" x1="23.534" y1="6.098" x2="23.534" y2="12.147"/>
		<line fill="none" stroke="#FFFFFF" stroke-miterlimit="10" x1="23.534" y1="6.098" x2="23.534" y2="12.147"/>
		<line fill="#FFFFFF" x1="23.534" y1="6.098" x2="23.534" y2="12.147"/>
	</g>
	<circle fill="#FFFFFF" stroke="#FFFFFF" stroke-width="0.75" stroke-miterlimit="10" cx="23.534" cy="12.749" r="1.071"/>
</g>
<line fill="#4D4DCE" stroke="#FFFFFF" stroke-miterlimit="10" x1="30.176" y1="10.242" x2="26.846" y2="10.242"/>
<circle fill="#4D4DCE" stroke="#FFFFFF" stroke-miterlimit="10" cx="26.515" cy="10.242" r="0.566"/>
<g>
	<line fill="#FFFFFF" stroke="#FFFFFF" stroke-miterlimit="10" x1="31.868" y1="14.432" x2="28.23" y2="14.432"/>
	<circle fill="#FFFFFF" stroke="#FFFFFF" stroke-width="0.75" stroke-miterlimit="10" cx="27.773" cy="14.432" r="0.843"/>
</g>
</svg>
